HIERARCHY
ROOT Hips
{
  OFFSET -125.086 92.215 135.881
  CHANNELS 6 Xposition Yposition Zposition Zrotation Xrotation Yrotation
  JOINT LeftUpLeg
  {
    OFFSET 8.64259 1.95398 -2.38835
    CHANNELS 3 Zrotation Xrotation Yrotation
    JOINT LeftLeg
    {
      OFFSET 43.7702 0 0
      CHANNELS 3 Zrotation Xrotation Yrotation
      JOINT LeftFoot
      {
        OFFSET 40.6238 0 0
        CHANNELS 3 Zrotation Xrotation Yrotation
        JOINT LeftToeBase
        {
          OFFSET 12.7242 0 0
          CHANNELS 3 Zrotation Xrotation Yrotation
          End Site
          {
            OFFSET 0 0 0
          }
        }
      }
    }
  }
  JOINT RightUpLeg
  {
    OFFSET -8.2249 1.95398 -2.59336
    CHANNELS 3 Zrotation Xrotation Yrotation
    JOINT RightLeg
    {
      OFFSET 43.5653 0 0
      CHANNELS 3 Zrotation Xrotation Yrotation
      JOINT RightFoot
      {
        OFFSET 40.6238 0 0
        CHANNELS 3 Zrotation Xrotation Yrotation
        JOINT RightToeBase
        {
          OFFSET 12.7242 0 0
          CHANNELS 3 Zrotation Xrotation Yrotation
          End Site
          {
            OFFSET 0 0 0
          }
        }
      }
    }
  }
  JOINT Spine
  {
    OFFSET 0.165834 0.87714 6.61349
    CHANNELS 3 Zrotation Xrotation Yrotation
    JOINT Spine1
    {
      OFFSET 7.38963 1.71661e-005 0
      CHANNELS 3 Zrotation Xrotation Yrotation
      JOINT Spine2
      {
        OFFSET 11.9445 1.14441e-005 0
        CHANNELS 3 Zrotation Xrotation Yrotation
        JOINT Spine3
        {
          OFFSET 14.7254 4.19617e-005 0
          CHANNELS 3 Zrotation Xrotation Yrotation
          JOINT Spine4
          {
            OFFSET 10.9679 0 0
            CHANNELS 3 Zrotation Xrotation Yrotation
            JOINT RightShoulder
            {
              OFFSET 2.46616 -1.6653 3.69651
              CHANNELS 3 Zrotation Xrotation Yrotation
              JOINT RightArm
              {
                OFFSET 13.0012 0 0
                CHANNELS 3 Zrotation Xrotation Yrotation
                JOINT RightForeArm
                {
                  OFFSET 28.7848 1.52588e-005 0
                  CHANNELS 3 Zrotation Xrotation Yrotation
                  JOINT RightHand
                  {
                    OFFSET 26.5688 1.52588e-005 0
                    CHANNELS 3 Zrotation Xrotation Yrotation
                    End Site
                    {
                      OFFSET 0 0 0
                    }
                  }
                }
              }
            }
            JOINT LeftShoulder
            {
              OFFSET 2.38034 -1.29275 -3.7523
              CHANNELS 3 Zrotation Xrotation Yrotation
              JOINT LeftArm
              {
                OFFSET 16.3182 6.10352e-005 0
                CHANNELS 3 Zrotation Xrotation Yrotation
                JOINT LeftForeArm
                {
                  OFFSET 27.0901 0 0
                  CHANNELS 3 Zrotation Xrotation Yrotation
                  JOINT LeftHand
                  {
                    OFFSET 24.5451 1.52588e-005 0
                    CHANNELS 3 Zrotation Xrotation Yrotation
                    End Site
                    {
                      OFFSET 0 0 0
                    }
                  }
                }
              }
            }
            JOINT Neck
            {
              OFFSET 5.0226 -0.0266342 0
              CHANNELS 3 Zrotation Xrotation Yrotation
              JOINT Head
              {
                OFFSET 6.69363 2.86102e-005 0
                CHANNELS 3 Zrotation Xrotation Yrotation
                End Site
                {
                  OFFSET 0 0 0
                }
              }
            }
          }
        }
      }
    }
  }
}
MOTION
Frames:	9
Frame Time:	0.0416667
15.1909 89.174 -292.207 37.8966 -36.6868 37.101 148.736 66.6296 102.731 3.64917 -78.0079 62.9434 -155.422 8.9598 -110.945 29.911 -8.89602 75.3588 -104.061 80.9013 1.09962 -75.1291 2.00013 3.12108 129.911 -20.3783 6.45669 139.046 40.9035 53.937 -1.0201 -0.342804 -87.145 27.5298 -0.222349 6.06034 15.8447 0.0440737 6.06425 -6.58675 -2.03047 5.71558 13.4259 -2.03047 5.71558 139.544 -71.8843 -37.5889 -0.654264 -13.4315 -2.66915 -165.226 -6.49887 -140.549 9.99758 -2.09599 -27.0796 -73.4247 -31.8527 105.323 2.96532 17.4241 41.7838 140.578 -58.234 -104.708 -34.7574 20.1329 -67.4674 -14.0146 -9.07794 -37.2703 -16.8571 -10.7206 20.0299 
15.0124 89.5108 -293.184 38.3262 -36.9592 37.319 149.28 65.2992 101.985 -1.80697 -77.1436 58.2098 -161.078 9.96168 -108.896 29.741 -8.60279 72.2526 -112.055 81.1276 8.87471 -75.0661 1.58473 3.42504 131.436 -21.2628 6.59965 140.054 40.1533 52.6969 -1.03016 -0.294664 -87.1661 27.435 -0.257221 6.02466 15.7501 0.0077242 6.03012 -6.68292 -2.05306 5.67108 13.3297 -2.05307 5.67109 138.847 -71.8064 -38.3623 -0.624509 -13.2343 -2.90633 -165.266 -6.34092 -140.32 9.81542 -2.07402 -27.2245 -73.39 -31.876 105.387 2.72977 16.7726 41.7943 141.834 -57.2466 -106.29 -34.4115 19.7356 -67.0108 -13.6298 -9.2431 -36.9202 -17.3374 -10.8525 20.0597 
14.506 90.442 -295.964 39.5452 -37.755 37.9595 150.426 61.374 100.384 -32.0682 -67.2686 30.7896 178.542 19.2835 -100.066 26.0106 -8.85042 60.9007 -136.18 80.7976 32.2825 -74.631 0.32681 4.33234 136 -23.9624 7.23103 142.891 37.6957 49.0719 -1.05793 -0.156498 -87.2293 27.1627 -0.356459 5.9167 15.4783 -0.0961602 5.92661 -6.95947 -2.11548 5.53829 13.0532 -2.11548 5.53829 136.881 -71.5667 -40.546 -0.520355 -12.6998 -3.56512 -165.368 -5.92913 -139.624 9.28168 -2.01217 -27.7051 -73.2927 -31.9435 105.565 1.98148 15.0086 41.8754 144.037 -54.2321 -111.675 -33.6339 18.6695 -65.4643 -12.5737 -9.72629 -35.9912 -18.6306 -11.2751 20.3024 
13.8578 90.7796 -300.596 41.3999 -39.0289 38.9914 151.47 55.5678 98.6323 -58.5479 -25.0126 13.2587 140.372 45.6093 -58.9931 12.4241 -10.2398 43.7647 -162.106 78.6464 56.6438 -75.3879 -1.79761 5.84225 145.051 -28.3884 9.14366 147.141 32.6649 43.0571 -1.09846 0.0581335 -87.3354 26.7397 -0.510113 5.73105 15.0561 -0.25781 5.74787 -7.38954 -2.20657 5.31502 12.6231 -2.20655 5.31501 133.902 -71.1431 -43.8688 -0.310087 -11.9477 -4.55191 -165.489 -5.39798 -138.43 8.41547 -1.91435 -28.6331 -73.1471 -32.0435 105.831 0.648767 12.4604 42.1055 145.593 -48.9824 -120.551 -32.7105 17.33 -63.2867 -11.0317 -10.5136 -34.7581 -20.4121 -12.071 21.1641 
13.1179 90.0911 -307.317 43.6518 -40.6891 40.3223 152.807 47.4468 96.2108 -68.8632 5.2915 13.2819 110.26 53.033 -11.6019 1.43762 -10.2226 34.0808 178.313 74.7891 73.5271 -76.5618 -4.47701 7.82598 160.466 -34.636 13.5483 151.854 23.28 34.5126 -1.14561 0.326614 -87.4848 26.2109 -0.70467 5.46276 14.5286 -0.463953 5.48837 -7.92786 -2.31188 5.00055 12.0848 -2.3119 5.00054 130.224 -70.508 -47.9984 0.034358 -11.1136 -5.7725 -165.561 -4.8985 -136.712 7.25456 -1.77644 -30.0993 -72.9706 -32.158 106.153 -1.28248 9.41063 42.512 146.552 -41.2115 -130.567 -31.8685 16.362 -61.9093 -9.17698 -11.5276 -33.4176 -22.3385 -13.246 22.8691 
12.2128 88.7553 -316.151 45.2494 -41.7213 40.7734 153.825 37.9049 94.621 -72.3811 13.4788 14.6948 100.816 58.011 6.29607 -3.65633 -9.21158 28.8134 165.678 70.9786 81.5454 -75.4656 -6.39236 12.028 -172.647 -42.027 23.1469 155.557 10.5491 25.4097 -1.1823 0.532732 -87.7311 25.8654 -0.879185 5.1986 14.1841 -0.649853 5.23212 -8.28132 -2.39912 4.69605 11.7313 -2.39913 4.69605 126.179 -69.6422 -52.5805 0.524137 -10.319 -7.14664 -165.498 -4.55544 -134.483 5.86857 -1.58803 -32.1165 -72.7826 -32.268 106.496 -3.75962 6.05841 43.0659 146.727 -30.1447 -139.598 -31.8774 16.3044 -61.7255 -7.14684 -12.651 -32.0202 -24.1368 -14.7127 25.3457 
10.8535 87.3623 -327.445 73.1932 -55.8909 72.7271 159.028 3.33568 89.5542 -75.7363 14.0794 21.4496 102.323 63.5463 10.6828 -6.05668 -8.15588 25.4357 162.326 43.9868 75.8912 -77.2531 3.57124 24.3853 -144.556 -50.2489 21.1203 132.36 32.1433 51.1375 -1.44209 3.12224 -87.6227 20.6201 -1.97847 3.07395 8.94763 -1.84119 3.15794 -13.5903 -2.81173 2.33752 6.42232 -2.81173 2.33752 122.085 -68.5459 -57.2784 1.15027 -9.65666 -8.61023 -165.202 -4.44639 -131.804 4.36003 -1.34027 -34.6147 -72.6029 -32.357 106.826 -6.69494 2.54442 43.6999 144.924 -13.4929 -146.167 -34.1254 16.8972 -59.909 -5.09014 -13.7887 -30.6045 -25.5409 -16.3637 28.4957 
9.5054 84.4016 -340.466 106.041 -50.9792 107.772 164.648 -27.8665 100.804 -75.2434 10.7061 27.6081 117.254 66.9597 -0.868665 -8.25411 -7.94277 24.2337 157.114 30.7503 77.5257 -87.987 -6.46661 25.0126 81.6656 -56.565 -143.874 127.775 15.4186 30.3628 -1.79567 5.4599 -89.7197 15.9248 -3.36901 1.31625 4.25738 -3.30783 1.46337 -18.3116 -3.60856 0.241667 1.70107 -3.60856 0.24166 118.198 -67.244 -61.8102 1.88627 -9.1844 -10.115 -164.568 -4.59232 -128.785 2.85545 -1.03617 -37.4559 -72.4503 -32.4139 107.107 -9.99108 -1.02377 44.3235 138.776 12.1361 -147.535 -37.9883 15.478 -50.6264 -3.16961 -14.8793 -29.2262 -26.2902 -18.0767 32.2418 
8.45327 79.0829 -355.239 103.239 -50.5833 103.519 166.136 -37.0148 104.295 -69.0754 4.7725 27.8677 141.03 62.7992 -25.1139 -11.905 -9.41922 25.9813 156.299 41.3267 72.542 -100.538 -30.2943 20.1569 99.9221 21.0841 -153.666 145.155 -28.5276 -3.10149 -2.13347 5.321 -89.5946 16.2693 -4.00356 1.48148 4.60349 -3.93451 1.65647 -17.9808 -4.26343 0.207706 2.03182 -4.26342 0.207701 114.693 -65.7817 -65.979 2.69519 -8.92278 -11.6293 -163.514 -4.95698 -125.562 1.48036 -0.697304 -40.4687 -72.3399 -32.435 107.314 -13.5602 -4.55891 44.8392 124.553 41.07 -137.921 -34.9751 9.18723 -35.3802 -1.53311 -15.8975 -27.9384 -26.1764 -19.7082 36.4997 
